<svg xmlns="http://www.w3.org/2000/svg" version="1.1" xmlns:xlink="http://www.w3.org/1999/xlink" xmlns:svgjs="http://svgjs.dev/svgjs" viewBox="0 0 800 800"><g fill="none" stroke-width="1.5" stroke="hsl(0, 0%, 100%)" stroke-linecap="round"><path d="M1353.26 422.9C1402.81 449.89 1400.99 482.27 1349.84 519.65 1261.5 556.94 1154.76 598.96 1051.84 644.98 972.12 690.2 929.75 738.24 929.64 787.55 970.4 833.77 1039.84 878.42 1122.16 918.83 1235.84 964.5 1285.21 988.34 1205.22 958.69 1120.89 926.1 1026.67 884.09 933.61 837.13 848.77 795.36 781.06 760.81 733.97 740.92 708.54 743.56 703.5 770.5 714.63 823.8 740.47 899.79 773.17 993.18 807.31 1094.13 843.32 1188.34 873.24 1264.77 894.72 1310.96 910.59 1320.01 916.13 1289.73 912.07 1224.66 901.55 1140.31 883.26 1050.72 859.2 975.63 830.96 935.09 799.55 938.08 766.83 987.86 732.29 1076.46 698.3 1186.35 666.03 1293.76 633.33 1374.21 603.22 1408.4 576.22 1386.46 549.23 1314.42 526 1209.88 506.12 1098.49 485.81 1005.5 468 950.98 451.63 944.48 433.45 986.25 414.85 1063.08 394.12 1155.75 369.21 1246.57 339.56 1313.19 303.3 1342.75 260.58 1331.23 209.43 1279.31 149.24 1197.12 83.43 1096.7 10.48 994.27 -67.12 903.81 -142.87 834.51 -215.74 793.84 -280.2 782.3 -329.95 798.7 -361.98 835.4 -371.93 883.61 -360.21 939.16 -326.2 990.09 -273.23 1030.05 -212.04 1058.52 -147.88 1069.23 -91.65 1062.53 -56.81 1040.64 -48.88 1004.52 -73.82 958.05 -131.81 902.39 -217.08 842.36 -318.91 781.38 -421.02 717.81 -508.03 657.07 -564.02 600.67 -579.15 544.9 -549.67 494.37 -480.37 449.19 -387.86 405.02 -289.07 365.63 -206.07 330.69 -160.25 296.12 -161.17 265.35 -210.72 238.36 -299.3 211.37 -404.06 188.79 -501 170.79 -571.31 153.14 -597.81 140.73 -576.17 134 -511.88 128.27 -417.44 128.79 -311.55 135.59 -212.3 143.01 -136.84 155.82 -95.5 172.6 -92.85 186.81 -125.02 201.23 -182.39 212.56 -256.02 214.71 -329.13 207.81 -389.29 188.09 -430.25 153.19 -443.03 102.3 -427 35.21 -384.65 -43.36 -320.55 -131.35 -242.5 -222.29 -155.58 -305.88 -69.14 -376.27 10.56 -424.54 81.59 -444.87 138.73 -434.25 181.48 -393.06 210.53 -330.71 226.95 -254.44 233.75 -178.09 231.05 -119.98 223.79 -90.06 215.13 -98.32 202.74 -147.67 192.71 -231.86 186.71 -337.91 180.35 -445.82 179.4 -535.54 184.22 -587.72 189.54 -591.64 200.55 -545.07 217.08 -457.42 233.84 -351.37 255.73 -249.56 282.72 -177.52 309.72 -155.58 341.17 -187.04 376.98 -262.14 413.03 -364.22 453.84 -466.16 499.42 -544.34 545.5 -583.71 596.46 -573.81 651.79 -518.04 706.76 -427.71 764.73 -320.55 823.9 -216.42 879.34 -131.56 932.21 -79.28 979.24 -64.26 1016.76 -86.37 1043.37 -136.63 1055.92 -202.74 1054.77 -275.59 1037.8 -338.92 1005.4 -383.04 964.31 -404.46 914.94 -397.71 863.4 -364.97 820.72 -309.71 790.32 -238.09 779.84 -157.7 795.68 -72.12 838.52 10.06 907.58 84.26 995.85 150.26 1095.11 203.79 1192.82 245.18 1301.35 286.14 1295.08 318.07 1182.12 322.47 1091.46 322.14 1009.91 324.09 956.03 329.79 944.81 334.67 979.26 344.45 1054.91 359.75 1157.18 374.94 1264.68 395.91 1353.26 422.9Q1353.26 422.9 1353.26 422.9" opacity="0.73"></path><path d="M1319.95 551.68C1367.92 577.5 1368.92 607.06 1324.24 639.84 1243.85 672.25 1143.44 707.13 1042.35 743.36 958.09 777.96 904.73 812.15 888.97 844.14 912.07 872.09 966.04 895.14 1038.68 911.1 1119.28 920.33 1190.69 920.12 1241.45 909.23 1266.19 891.42 1259.1 863.85 1222.26 828.18 1160.18 791.9 1080.56 754.27 992.81 720.48 903.38 698.98 821.9 691.31 754 702.57 701.95 735.87 668.42 791.02 652.1 866.28 652.24 954.38 664.46 1049.1 684.3 1140.03 711.82 1214.88 739.89 1265.25 765.19 1282.87 790.12 1266.24 808.48 1216.58 819.43 1141.56 826.73 1057.68 826.4 977.74 819.3 918.6 808.87 895.71 793.19 914.24 773.57 974.08 752.19 1065.64 728.48 1172.23 703.46 1272.51 677.97 1345.45 652.1 1374.87 626.28 1352.72 600.46 1284.66 575.31 1185.89 550.51 1078.77 525.23 985.57 499.39 924.87 472.08 906.85 443.01 933.98 410.86 997.14 374.44 1081.16 334.7 1171.32 289.17 1246.9 237.13 1294.1 181.44 1306.63 119.44 1280.58 52.11 1221.32 -15.57 1137.17 -84.79 1040.78 -152.11 945.14 -211.74 859.58 -262.39 794.23 -299.48 753.35 -320.09 738.39 -322.02 746.94 -303.81 773.44 -269.75 815.08 -220.5 861.98 -161.55 907.38 -104.29 950.27 -53.42 982.26 -18.23 1001.12 -8.27 1008.7 -26.2 1002.07 -73.98 983.12 -147.76 953.9 -240.22 916.09 -339.74 872.75 -431.3 823.86 -502.08 773.36 -539.75 723.51 -538.57 671.84 -497.54 622.95 -423.25 577.96 -332.12 532.73 -239.3 491.99 -164.03 456.13 -124.46 420.31 -128.06 389.36 -176.04 363.54 -259.92 337.72 -359.65 317.64 -454.18 303.17 -526.9 288.73 -561.38 279.92 -552.08 276.46 -501.98 272.76 -419.87 273.81 -321 278.64 -220.98 281.64 -136.08 286.29 -77.81 290.44 -52.83 289.03 -61.61 283.22 -98.71 270.04 -158.31 246.6 -226.86 212.09 -292.78 164.71 -349.63 106.07 -386.29 35.65 -398.85 -44.18 -387.51 -126.52 -352.25 -208.87 -297.88 -284.35 -228.19 -344.7 -150.35 -385.48 -70.68 -401.02 8.61 -390.63 80.81 -354.03 143.27 -295.36 196.46 -226.61 238.03 -155.24 269.08 -94.12 290.62 -57.88 304.42 -52.86 313.02 -84.3 315.8 -150.42 316.9 -242.81 318.42 -347.54 318.47 -483.88 334.91 -524.15 354.71 -409.52 369.57 -307.51 389.79 -211.36 415.61 -143.27 441.43 -121.11 472.23 -147.9 507.66 -215.72 543.02 -310.89 582.84 -409.88 626.49 -491.49 669.55 -541.38 715.57 -547.58 763.28 -510.13 808.6 -436.42 853.36 -339.68 895.33 -236.87 931.47 -142.92 961.3 -72.21 982.15 -32.55 993.49 -27.14 993.09 -52.48 979.69 -100.44 957.03 -164.49 923.26 -230.46 880.9 -288.08 838.17 -332.85 795.78 -355.78 759.94 -355.24 739.41 -332.66 736.38 -289.54 755.52 -231.1 798.57 -160.36 863.98 -84.31 947.71 -8.23 1040.51 67.22 1134.08 135.95 1216.72 196.15 1276.85 249.44 1306.67 293.28 1300.62 328.8 1261.27 357.58 1193.18 380.39 1107.73 399.28 1023.43 414.14 953.65 427.77 913.52 441.87 914.18 454.34 956.26 469.01 1034.08 486.89 1133.73 504.4 1236.07 525.87 1319.95 551.68Q1319.95 551.68 1319.95 551.68" opacity="0.34"></path><path d="M1285.98 622.04C1332.71 646.69 1336.71 672.07 1298.62 697.74 1226.46 722.96 1133.08 747.56 1035.09 770.49 916.77 800.6 879.18 833.94 956.98 831.15 1030.87 822.48 1104.28 805.93 1165.9 781.91 1209.68 756.17 1227.14 726.14 1217.01 694.76 1181.25 669.25 1123.49 649.31 1050.7 639.53 968.1 645.23 884.39 667.33 806.03 708.08 735.84 766.31 679.14 840.43 637.13 926.03 609.69 1014.27 596.06 1099.07 593.49 1170.98 601.68 1220.98 615.75 1243.51 632.39 1234.41 653.17 1196.64 672.11 1133.72 687.3 1055.1 706.94 943.47 715.15 878.59 704.22 962.59 694.03 1055.37 679.5 1157.63 661.2 1250.47 642.54 1316.07 620.78 1340.98 596.14 1318.73 571.49 1254.57 544.54 1161.58 515.19 1059.07 485.49 966.52 452.72 900.9 416.43 872.59 378.98 885.66 337.12 934.46 290.49 1007.5 242.28 1093.11 189.11 1172.84 131.45 1232.97 73.55 1266.09 12.97 1264.87 -48.28 1230.62 -105.38 1168.24 -158.74 1086.22 -204.91 995.39 -240.32 904.17 -263.37 823.36 -271.2 759.55 -264.46 715.97 -241.6 694.61 -203.71 693.34 -157.65 710.85 -104.71 740.72 -51.21 777.16 -7.51 819.15 22.8 858.26 32.89 890.73 17.36 918.06 -23.97 934.62 -89.74 940.25 -173.34 937.62 -266.83 925.05 -358.79 904.46 -436.25 877.55 -489.1 845.55 -508.47 810.66 -492.2 772.48 -441.43 733.89 -363.88 696.46 -275.41 657.84 -189.28 621.75 -122 589.06 -88.79 556.13 -95.28 527.12 -142.01 502.47 -221.52 477.82 -316.23 458.13 -407.81 443.04 -502.21 422.12 -453.23 396.07 -329.16 386.01 -232.19 376.19 -142.46 364.42 -71.72 348.62 -27.72 326.49 -14.16 297.42 -29.2 259.59 -69.88 213.49 -126.34 157.65 -188.83 92.34 -251.7 21.88 -303.33 -53.9 -337.86 -131.15 -354.01 -202.85 -348 -266.58 -321.61 -316.39 -277.3 -347.42 -219.05 -356.84 -152.09 -342.36 -78.55 -307.66 -4.85 -254.3 65.25 -188.73 131.99 -123.57 190.85 -65.43 241.16 -25.02 284.49 -12.75 319.57 -31.61 347.76 -82.77 370.09 -160.97 387.91 -256.74 403.04 -356.25 420.58 -473.49 456.72 -478.42 480.39 -361.58 496.97 -263.94 517.41 -173.44 542.05 -109.26 566.7 -87 594.97 -109.4 626.39 -170.11 657.53 -258.07 691.23 -353.08 726.56 -436.36 760.57 -494.67 794.79 -515.28 827.69 -495.62 857.27 -439.84 883.23 -356.95 903.6 -260.69 918.13 -163.99 924.7 -80.98 921.83 -21.23 911.99 9.85 892.42 11.21 863.67 -13.12 831.54 -59.37 794.52 -116.73 756.25 -175.86 712.34 -254.04 706.41 -304.23 764.05 -268.8 827.68 -223.76 906.75 -167.14 995.28 -103.64 1083.44 -34.27 1163.78 35.04 1226.44 101.24 1263.46 165.73 1269.99 223.92 1244.06 275.3 1191.38 322.4 1117.7 362.99 1034.63 398.04 958.99 429.61 901.7 457.39 874.68 482.7 885.83 506.24 933.99 528.95 1012.81 551.74 1109.26 574.07 1206.47 597.4 1285.98 622.04Q1285.98 622.04 1285.98 622.04" opacity="0.36"></path><path d="M1251.97 607.22C1297.38 630.69 1304.1 651.79 1272.29 670.28 1208.29 688.4 1122.44 703.21 1028.82 714.06 940.97 723.67 871.56 728.32 829.02 727.39 817.96 724.58 837.11 715.75 880.83 701 943.57 685.33 1013 665.17 1078.83 642.12 1153.65 612.79 1160.99 587.26 1093.92 608.24 1027.81 641.24 953.13 689.27 876.02 751.98 799.26 825.07 729.24 906.24 668.92 989.76 618.57 1067.05 580.43 1132.94 553.69 1179.99 537.69 1203.01 530.5 1199.04 529.58 1167.45 535.43 1114.51 543.74 1044.94 552.26 968.75 567.8 875.01 583.3 857.55 579.78 953.32 575.52 1045.69 566.36 1142.69 552.33 1227.87 538.16 1286.31 519.36 1306.98 495.88 1284.72 472.41 1224.38 444.83 1137.13 413.28 1039.54 381.59 948.47 345.7 879.22 305.69 841.97 265.41 841.87 221 876.09 172.91 936.43 125.17 1014.11 74.72 1093.36 22.88 1161.38 -26.3 1210.49 -74.27 1231.26 -118.67 1221.81 -156.29 1184.14 -186.51 1122.6 -206.69 1045.24 -216.12 958.84 -212.92 873.28 -196.15 796.03 -169.42 731.13 -131.63 683.65 -85.64 654.44 -39.28 643.48 6.09 648.22 44.48 664.74 67.77 692.24 73.77 724.01 58.37 755.95 19.97 789.12 -39.74 816.93 -117.01 837.65 -203.77 854.12 -292.33 862.09 -372.27 862.04 -433.21 856.99 -467.63 845.22 -469.82 828.22 -440.53 807.81 -382.33 784.16 -303.53 758.72 -218.97 731.71 -140.03 704.44 -80.67 677.91 -53.5 650.99 -62.6 625.56 -108.01 602.09 -183.2 578.62 -272.83 557.65 -361.08 538.85 -435.43 519.67 -481.64 501.89 -493.15 484.63 -469.66 465.81 -414.16 445.98 -335.8 423.79 -245.09 398.22 -154.74 368.3 -75.97 332.67 -16.85 292.04 16.74 244.41 23.79 189.4 4.85 130.13 -33.94 64.91 -85.24 -4.43 -144.68 -72.54 -201.58 -139.25 -249.33 -200.34 -295.53 -268.92 -273.81 -299.67 -212.39 -253.4 -156.19 -203.87 -93.68 -144.44 -28.73 -82.47 38.5 -29.56 102.98 9.23 162.73 25.96 219.46 14.48 269.76 -25.41 313.68 -91.73 353.4 -176.95 387.57 -271.48 417.24 -362.41 443.84 -435.99 467.63 -481.42 489.75 -490.38 510.4 -462.19 530.8 -399.84 551.75 -313.42 572.32 -220.47 594.2 -135.6 617.67 -75.26 641.14 -53 665.66 -71.29 690.8 -125.09 715.57 -205.62 740.22 -295.72 763.84 -379.03 785.98 -443.64 805.68 -476.64 821.66 -473.65 834.57 -436.24 842.1 -369.64 843.06 -284.36 839.81 -190.97 829.18 -102.27 810.99 -28.39 789.77 24.13 762.71 50.85 731.64 52.26 702.88 29.65 675.3 -10.1 652.69 -59.66 641.03 -115.47 640.9 -167.35 655.66 -209.67 687.3 -241.62 735.75 -257.42 800.1 -256.83 875.56 -241.56 958.6 -211.96 1042.47 -171.24 1118.22 -120.78 1179.77 -64.63 1219.64 -6.12 1233.52 55.45 1219.05 115.28 1177.13 171.63 1115.57 227.05 1040.5 277.57 963.04 322.97 897.92 366.49 853.64 405.32 839.2 439.98 859.76 473.39 912.89 503.63 991.88 531.23 1084.77 558.46 1176.78 583.74 1251.97 607.22Q1251.97 607.22 1251.97 607.22" opacity="0.84"></path><path d="M1217.98 512.95C1261.97 535.25 1271.13 553.14 1245.22 566.63 1189.23 579.95 1111.28 588.58 1023.14 592.43 936.34 595.88 862.44 594.41 809.9 588.23 784.08 582.1 786.04 572.02 812.81 559.03 861.08 548.15 921.4 536.73 985.04 526.89 1046.89 523.18 1096.84 524.83 1129.82 534.44 1144.67 554.5 1138.25 585.56 1112.22 628.86 1068.96 682.93 1012.2 747.73 946.89 820.96 875.47 896.79 803.91 972.8 735.98 1043.16 672.18 1100.98 616.61 1142.4 570.11 1162.47 531.79 1159.77 502.5 1133.36 480.92 1085.37 466.48 1024.01 457.32 954.33 451.5 885.9 449.55 814.14 446.97 841.55 440.67 945.82 435.92 1036.23 427.23 1127.2 414.17 1204.59 401.2 1256.14 383.67 1272.87 361.37 1250.73 339.07 1194.18 312.53 1112.65 282.07 1020.24 251.7 931.41 217.59 859.73 180.29 814.97 143.51 802.83 104.24 822.72 63.47 869.26 24.51 936.29 -14.31 1010.87 -51.39 1081.68 -84.21 1141.54 -112.73 1180.01 -134.91 1192.98 -149.95 1180.34 -156.2 1142.7 -152.25 1085.15 -140.12 1012.58 -117.73 932.79 -85.84 852.91 -49.81 776.98 -8.87 711.58 33.31 659.69 83.86 611.01 105.75 602.04 58.48 627.59 2.28 652.63 -69.27 677.98 -151 701.11 -234.54 724.47 -313.03 742.7 -377.65 755.02 -420.76 764.96 -437.23 768.63 -424 766.48 -384.04 761.96 -320.79 752.6 -242.6 739.27 -163.06 724.62 -91.68 707.16 -40.1 687.64 -18.6 667.75 -30.02 646.51 -74.01 624.21 -144.92 601.91 -229.44 579.08 -314.02 555.54 -388.01 531.63 -438.41 506.29 -458.61 478.89 -447.35 450.17 -405.5 418.23 -339.62 382.29 -257.91 343.99 -170.84 300.72 -88.61 252.13 -18.94 201.17 31.07 145.26 58.35 85.29 61.66 25.55 43.73 -35.33 9.37 -94.75 -38.53 -148.01 -91.25 -194.51 -142.44 -230.68 -190.09 -253.85 -226.65 -262.2 -249.51 -253.88 -259.32 -231.22 -253.61 -193.67 -233.92 -144.07 -201.97 -90.51 -159.83 -35.55 -110.69 13.79 -55.15 48.13 2.63 64.17 60.13 56.93 118.64 24.08 174.02 -32.55 225.22 -108.75 274.79 -195.9 319.58 -285 359.69 -364.61 397.88 -423.74 432.07 -454.3 462.83 -450.77 492.46 -414.63 519.62 -349.52 544.81 -265.11 569.67 -177.11 593.18 -97.83 615.48 -41.26 637.78 -19.11 658.33 -33.57 676.9 -80.7 695.15 -153.67 710.79 -238.08 723.22 -319.88 738.07 -410.24 741.65 -399.93 728.12 -304.56 715.56 -219.79 697.87 -131.94 675.97 -50.69 655.08 17.19 632.85 65.21 611.67 91.13 596.9 94.28 587.95 77.69 587.9 46.2 600.11 2.17 625.03 -45.99 664.06 -92.61 716.15 -136.61 780.54 -170.79 854.52 -192.96 932.04 -204.35 1009.58 -202.22 1080.71 -187.91 1138.29 -163.16 1177.83 -129.27 1194.41 -88.94 1187.02 -42.49 1155.18 6.6 1101.85 56.12 1035.96 107.76 963.41 157.44 894.29 204.03 840.99 250.67 809.78 293.45 807.13 332.05 835.94 370.25 892.9 404.42 971.3 434.53 1060.29 464.47 1147.07 490.65 1217.98 512.95Q1217.98 512.95 1217.98 512.95" opacity="0.35"></path><path d="M1183.98 375.34C1226.46 396.47 1237.75 412.87 1217.36 424.76 1169.14 436.7 1099.33 444.27 1017.58 447.83 933.57 451.82 857.5 452.4 797.51 450.39 752.23 449.22 810.33 452.74 889.84 465.71 950.31 482.78 1006.03 507.11 1051.39 540.15 1084.67 581.55 1100.71 632.19 1099.03 691.62 1080.94 756.23 1047.29 825.79 1001.4 896.94 945.24 963.9 883.27 1024.45 819.19 1073.67 753.63 1107.22 691.23 1122.52 633.94 1117.15 580.8 1092.86 534.65 1050.11 495.44 992.77 461.77 929.85 434.24 865.96 411.71 809.57 393.49 770.74 378.44 753.64 365.21 762.85 354.43 799.69 343.81 860.74 332.3 939.75 321.8 1026.8 309.37 1111.09 294.36 1180.66 279.59 1225.59 261.78 1238.65 240.65 1216.73 219.53 1163.88 195.59 1088 169.22 1000.99 143.07 915.11 114.96 842.23 85.62 791.46 57.29 768.69 28.78 774.98 1.23 807.28 -23.85 861.66 -46.32 928.02 -64.72 996.84 -78.79 1061.9 -86.96 1112.76 -87.98 1144.04 -83.46 1154.25 -70.98 1141.02 -50.4 1106.69 -25.66 1054.4 5.29 989.19 40.62 916.98 74.47 841.3 107.44 768.74 135.9 703.37 154.11 646.46 161.39 601.38 154.54 568.41 131.27 547.17 91.71 536.71 36.43 534.85 -30.91 541.56 -107.1 552.98 -186.42 566.62 -261.14 584.06 -325.61 600.41 -372.88 614.11 -398.01 628.3 -397.84 638.29 -371.45 643.57 -323.37 648.1 -257.39 647.78 -181.54 642.76 -107.94 637.06 -44.35 627.12 -0.31 613.23 15.9 599.12 2.46 581.46 -40.01 560.34 -106.68 539.21 -186.08 515.12 -266.69 488.09 -339.58 460.84 -393.05 430.23 -420.69 396.09 -420.64 361.28 -392.09 322.46 -339.45 279.61 -268.85 236 -188.48 188.5 -107.17 137.7 -31.86 87.39 30 35.34 74.08 -16.78 97.96 -65.11 101.6 -110.21 87.43 -149.48 56.9 -180.18 16.29 -201.17 -29.08 -210.16 -77.59 -207.41 -121.77 -191.35 -158.05 -162.13 -186.71 -124.45 -203.24 -78.26 -207.4 -27.52 -200.79 19.73 -182.83 61.43 -155.53 91.73 -120.03 104.06 -78.58 96.83 -33.56 67.78 15.45 17.67 64.98 -50.39 113.39 -130.94 162.72 -215.23 209.34 -295.35 252.53 -361.66 295.34 -405.89 334.41 -422.28 369.63 -407.67 404.37 -365.06 435.56 -298.41 463.27 -216.71 490.8 -133.88 515.17 -60.13 536.3 -7.27 557.42 14.64 574.8 3.74 588.42 -36.99 601.86 -102.37 611.21 -180.44 616.32 -259.35 620.97 -355.7 607.11 -387.98 589.84 -318.25 578.04 -246.38 564.21 -165.28 549.87 -83.51 539.54 -7.33 531.76 55.89 528.81 102.18 534.06 129.55 547.54 137.78 571.15 129.18 605.54 104.91 651.07 70.73 707.42 31.46 771.38 -11.99 841.93 -52.54 915.38 -86.93 985.71 -116.14 1049.84 -135.33 1102.37 -144.18 1138.55 -144.67 1155.38 -135.32 1150.35 -117.71 1125.12 -93.24 1080.47 -63.06 1020.65 -29.18 954.82 8.62 888.21 47.66 829.52 86.4 788.8 126.74 770.33 165.28 778.43 201.13 814.2 237.41 873.88 270.39 950.95 299.6 1035.73 328.86 1117.28 354.21 1183.95 375.33Q1183.98 375.34 1183.98 375.34" opacity="0.81"></path><path d="M1149.95 247.18C1190.84 267.13 1203.98 283.73 1188.71 297.24 1147.96 310.97 1086.4 322.04 1011.78 331.05 932.07 341.01 856.04 349.9 791.2 358.72 743.01 369.85 715.23 382.5 708.65 397.98 723.23 417.62 754.88 441.91 798.65 472.05 851.72 507.7 906.14 550.17 956.52 599.68 1001.11 653.75 1033.74 713.39 1052.43 776.97 1057.79 840.1 1048.21 902.41 1025.3 960.4 990.63 1009.53 946.51 1047.99 895.96 1072.3 839.76 1080.88 781.86 1072.24 724.65 1046.1 667.38 1006.54 613.72 954.69 564.6 895.31 518.28 837.1 477.15 783.85 440.99 742.46 407.96 720.39 379.1 719.93 353.63 743.38 330.37 790.06 309.28 855.92 289.55 934.61 270.89 1017.1 252.59 1094.21 234.07 1156.01 215.83 1194.63 196.83 1204.31 176.88 1182.72 156.93 1133.5 136.5 1063.2 115.87 981.77 95.53 899.46 75.54 826.55 56.57 771.29 38.67 739.45 22.8 733.27 9.87 751.5 -0.85 792.03 -7.43 847.41 -8.97 910.04 -7.38 974.95 0.02 1032.45 13.58 1076.69 29.94 1105.55 51.8 1114.54 78.31 1103.79 104.78 1074.97 132.99 1030.28 160.64 973.96 182.64 908.75 199.36 840.11 207.88 772.25 204.65 706.52 189.33 647.47 160.41 596.8 118.15 554.23 63.31 521.33 -2.04 497.35 -73.19 481.69 -146.95 473.03 -217.82 469.5 -303.34 473.78 -357.14 492 -312.81 499.05 -259.23 503.72 -192.73 504.94 -120.72 502.23 -53.8 499.59 1.88 492.78 38.68 481.61 50.01 470.42 34.84 454.91 -6.04 434.96 -68.52 415.01 -142.8 391.09 -219.18 363.42 -290.29 335.73 -345.73 304.25 -379.48 269.26 -389.38 234.35 -373.42 196.17 -334.23 155.3 -276.17 115.23 -205.29 73.44 -128.84 31.14 -52.75 -8.53 15.89 -46.68 72.17 -81.5 124.9 -122.31 121.59 -154.15 77.88 -138.53 37.7 -116.41 -4.12 -84.75 -43.88 -45.17 -81.74 -3.47 -112.23 40.27 -133.9 81.92 -150.38 125.92 -124.45 121.04 -87.79 60.23 -56.02 -1.79 -20.75 -75.54 16.31 -155.08 56.08 -232.33 95.73 -300.7 134.09 -352.5 173.4 -381.99 210.41 -385.35 244.49 -361.22 278.75 -313.67 309.76 -246.63 337.19 -168.28 364.62 -90.79 388.43 -22.51 408.38 26.72 428.33 48.32 443.95 40.67 455.38 6.01 466.82 -51.82 474.1 -123.06 477.46 -197.85 481.01 -268.85 480.96 -325.19 477.85 -360.62 475.69 -372.82 471.48 -359.38 466.28 -322.69 463.79 -266.68 462.23 -197.18 463.22 -121.18 469.55 -43.99 480.89 27.18 498.87 87.52 524.55 134.44 558.53 165.3 601.41 180.28 651.63 179.53 709.52 165.98 773.52 143 839.44 111.16 906.17 76.26 969.9 41.67 1025.64 6.64 1070.92 -23.3 1101.8 -46.62 1116.01 -65.39 1111.81 -76.06 1088.65 -78.95 1050.16 -76.34 997.77 -66.92 936.3 -51.98 874.48 -32.88 816.59 -10.1 769.79 14.95 741.86 42.33 735.42 70.4 753.02 98.07 794.47 126.68 855.79 153.9 930.84 179.04 1011.17 204.4 1087.47 227.23 1149.95 247.18Q1149.95 247.18 1149.95 247.18" opacity="0.10"></path><path d="M1115.98 177.64C1155.15 196.42 1169.82 214.21 1159.21 231.19 1125.56 248.44 1072.19 265.4 1005.25 282.63 931.13 300.88 857.19 320.35 790.09 341.83 734.89 365.43 695.84 392.22 674.82 422.99 672.79 456.82 687.76 495.45 716.59 539.18 757.6 585.78 804.57 637.03 852.86 692.12 901.03 747.6 942.81 804.35 975.44 860.18 999.15 911.22 1010.59 956.9 1009.88 994.3 998.34 1020.85 976.07 1035.08 945.06 1035.12 906.26 1021.91 862.14 994.63 814.94 954.61 764.38 907.2 713.75 853.72 664.58 798.99 615.3 750.68 569.02 711.53 526.33 686.72 484.92 681.24 447.3 695.89 413.38 731.23 380.78 785.14 351.35 853.45 324.74 930.02 298.91 1006.9 275.23 1076.47 253.41 1130.64 231.81 1163.28 211.65 1169.89 192.87 1148.73 174.1 1103.07 157.15 1038.26 142.17 962.54 127.41 884.38 115.05 812.51 105.47 754.27 93.99 706.47 91.83 750.25 102.83 824.58 112.98 884.56 127.52 943.01 145.98 994.29 164.31 1036.18 185.01 1063.04 206.63 1073.38 224.89 1067.85 241.06 1046.14 252.99 1010.71 257.14 963.52 253.62 908.15 240.55 848.26 216.65 785.08 181.77 723.09 135.89 664.75 81.09 609.81 18.4 561.4 -49.31 520.02 -117.15 484.65 -182.33 456.25 -240.08 433.93 -300.8 410.78 -307 386.97 -248.98 380.08 -192.48 377.25 -127.5 373.14 -60.64 366.96 -0.94 361.41 46.9 353.06 76.83 341.45 83.72 329.98 67.15 314.97 27.98 296.19 -30.35 277.42 -99.51 255.32 -171.42 230.22 -240.14 205.25 -296.52 177.56 -335.05 147.69 -353.55 118.47 -349.15 87.79 -323.11 56.55 -278.39 27.06 -219.05 -1.65 -150.78 -28.32 -78.36 -51.48 -8.05 -70.74 55.23 -84.67 108.47 -93.18 148.28 -94.72 173.66 -88.3 184.1 -75.86 180.99 -55.4 166.65 -27.33 141.63 4.14 110.57 40.34 76.71 78.91 39.91 114.19 5.44 146.12 -24.54 171.14 -51.46 184.41 -71.31 185.22 -83.7 171.2 -90.62 141.31 -90.09 96.26 -82.96 37.63 -70.83 -30.39 -53.54 -104.14 -32.4 -177.88 -7.92 -244.72 18.72 -299.47 46.36 -336.34 75.71 -351.81 104.79 -343.57 132.73 -311.63 161.32 -260.65 188.07 -194.3 212.41 -119.87 236.89 -47.86 258.68 15.04 277.46 60.72 296.24 81.88 311.56 77.19 323.65 48.27 335.89 -2.16 345.19 -66.21 352 -135.84 359.48 -205.16 365.19 -264.51 369.9 -307.84 376.33 -332.58 383.03 -335.01 391.1 -315.78 402.49 -277.21 416.93 -222.76 435.63 -157.71 459.33 -86.23 488.73 -14.56 524.59 52.4 565.91 111.97 613.71 160.17 667.5 195.56 724.36 217.7 784.6 226.91 846.02 224.97 904.49 212.19 958.99 192.29 1006.19 168.13 1042.71 139.17 1066.73 110.37 1075.84 83.83 1070.03 57.68 1048.41 36.36 1011.93 20.58 965.39 7.68 910.38 0.78 851.72 -0.5 797.22 1.27 750.1 7.82 715.97 18.29 700.53 30.87 705.09 46.19 730.82 63.35 776.59 81.54 838.49 100.61 910.92 119.94 986.55 139.53 1057.61 158.86 1115.95 177.63Q1115.98 177.64 1115.98 177.64" opacity="0.22"></path><path d="M1081.95 193.36C1119.35 210.96 1135.26 229.94 1128.9 250.33 1101.93 270.93 1056.61 293.35 997.69 317.86 930.21 343.1 860.14 371.07 793.24 402.09 733.91 434.38 686.53 470.23 653.59 509.75 636.35 592.23 675.83 687.35 748.96 787.76 839.1 876.45 912.62 948.7 953.58 987.31 962.24 985.15 933.29 937.17 877.79 850.39 801.83 756.81 718.3 676.7 637.77 643.79 596.55 653.64 557.7 681.16 521.68 725.63 485.9 784.12 453.12 852.6 423.48 925.45 394.13 995.88 367.75 1057.71 344.34 1104.45 321.04 1131.5 300.53 1135.34 282.92 1114.72 265.32 1072.54 251.04 1013.12 240.05 943.2 229.17 869.69 221.77 799.86 217.92 740.11 214.44 682.05 226.24 688.19 240.74 743.69 260.25 851.41 285.8 952.47 307.5 1015.68 308.74 1031.23 287.14 991.48 232.33 911.86 145.23 805.04 29.96 693.09 -96.83 591.74 -206.61 501.05 -277.67 431.45 -286.23 380.09 -266.2 359.02 -230.28 340.9 -180.89 324.84 -123.92 310.7 -62.26 297.42 -1.58 284.26 50.54 271.95 90.68 258.91 114.17 244.62 117.04 230.55 99.35 214.82 61.95 197.21 7.7 179.61 -56.36 160.56 -123.61 140.34 -189.35 120.33 -245.67 99.59 -287.63 78.69 -313.2 58.66 -319.03 39.32 -305.36 21.53 -274.06 5.65 -227.52 -7.49 -169.93 -16.93 -36.94 -26.59 88.1 -14.98 178.43 21.43 222.42 68.52 220.13 129.92 186.14 190.6 127.58 224.08 69.2 222.1 24.58 169.9 -10.45 70.04 -22.24 -62.59 -13.84 -196.12 -5.42 -250.16 6.6 -290.35 21.36 -312.6 37.9 -315.28 56.08 -297.16 75.12 -259.17 94.97 -206.22 114.89 -141.58 134.33 -71.55 153.97 -5.1 172.73 52.52 190.33 94.72 207.94 115.34 223.97 113.3 238.62 89.75 253.47 46.49 267.34 -10.15 280.68 -73.78 294.84 -139.84 309.28 -199.91 324.67 -248.47 341.86 -283.02 361.09 -299.09 383.18 -296.04 435.8 -237.33 505.56 -125.65 594.87 4.58 693.75 128.02 802.68 217.75 907.38 266.06 987.52 273.61 1031.56 251.91 1024.23 217.49 970.55 171.34 877.08 134.21 769.9 112.74 707.67 101.43 672.15 102.02 711.63 112.3 760.39 120.99 821.89 132.36 891.11 146.04 961.85 159.94 1027.7 175.76 1081.95 193.36Q1081.95 193.36 1081.95 193.36" opacity="0.16"></path><path d="M1047.95 288.33C1101.24 321.19 1077.22 365.66 988.64 421.25 863.55 477.86 738.23 546.68 644.39 625.57 599.69 702.45 607.15 782.54 653.52 856.05 728.27 910.65 803.69 940.94 862.25 936.13 902.45 899.99 911.3 831.18 892.8 742.81 853.3 665.64 798.17 614.91 737.2 614.37 669.23 674.74 605 785.79 549.43 920.48 493.18 1037.81 447.66 1100.01 414.8 1080.72 381.94 987.92 363.29 854.86 357.58 728.53 351.17 646.33 355.62 628.55 366.64 670.35 370.66 757.85 371.68 855.49 360.53 934.34 328.39 983.04 272.36 985.1 189.09 945.97 87.46 873.98 -26.92 782.95 -135.88 688.35 -216.47 591.54 -253.4 506.59 -232.78 436.51 -163.03 373.79 -56.41 323.49 55.98 282.1 131.88 243.66 149.24 208.87 95.95 176.01 -14.85 143.15 -139.79 113.77 -237.39 90.24 -283.94 69.66 -262.29 60.17 -183.54 65.93 -68.11 79.07 55.05 109.9 160.22 156.07 251.4 221.95 218.13 248.37 155.28 144.95 111.64 31.89 82.6 -95.21 70.36 -206.8 64.77 -272.7 73.81 -273.64 93.79 -204.14 116.46 -90.49 145.29 35.9 178.15 128.72 211.01 148.03 246.34 92.5 285.65 -12.13 327.64 -134.14 378.38 -226.5 440.92 -262.79 510.1 -238.18 593.26 -157.98 687.54 -46.6 779.84 75.97 869.41 183.75 942.1 262.96 984.78 310.85 989.44 327.75 949.63 323.8 878.68 300.94 784.98 274.97 693.64 255.03 638.97 233.09 636.02 224.05 695.26 229.4 805.54 235.78 937.13 255.47 1047.95 288.33Q1047.95 288.33 1047.95 288.33" opacity="0.85"></path><path d="M1013.95 426.12C1065.86 456.63 1050.9 499.28 977.76 552.16 867.23 604.29 747.46 664.54 645.98 728.19 579.79 785.17 557.62 836.7 574.19 873.74 624.17 891.3 687.5 883.43 748.12 846.04 804.24 790.54 839.29 717.32 851.56 641.6 847.48 589.18 824.78 569.93 790.31 598.36 747.17 675.88 700.88 789.83 657.01 914.63 611.28 1016.8 571.9 1067.39 541.39 1046.72 510.88 962.4 490.67 840.59 478.85 719.16 465.18 629.29 455.97 591.43 446.23 607.07 427.81 669.74 400.27 754.11 357.31 835.87 298.01 904.68 219.16 939.87 123.04 939.26 22.43 907.9 -77.07 850.45 -158.82 779.04 -207.16 696.3 -212.36 614.94 -168.53 541.6 -89.42 469.55 12.97 408.53 111.72 358.76 173.09 310.53 181.86 271.22 129.95 240.7 28.24 210.19 -87.85 189.91 -184.59 180.59 -242.18 172.82 -242.18 178.33 -189.08 197.49 -96.2 217.96 15.75 249.06 124.33 284.78 217.13 309.17 280.85 322.82 314.44 314.18 319.4 274.81 304.55 203.45 280.66 102.87 246.55 -10.65 217.37 -122.39 198.58 -207.43 180.95 -245.44 176.41 -224.97 184.68 -146.89 194.35 -37.24 214.74 78.38 245.25 162.72 275.77 183.41 314.96 139.01 362.84 48.63 412.11 -64.39 472.15 -160.98 542.66 -216.14 614.34 -222.21 693.77 -175.61 774.9 -91.43 845.82 16.06 904.48 125.45 939.52 220.95 945.92 298.34 918.38 350.02 857.35 379.49 780.54 389.49 695.95 388.22 625.43 384.12 594.7 373.34 612.07 368.6 681.44 374.02 789.95 378.68 912.24 395.61 1013.95 426.12Q1013.95 426.12 1013.95 426.12" opacity="0.25"></path><path d="M979.95 553.88C1030.09 582.05 1023.13 618.15 964.7 659.82 869.85 699.68 759.52 741.37 656.53 779.72 552.5 819.6 557.93 800.96 627.54 729.93 683.14 671.18 728.92 608.37 759.59 555.72 781.31 532.17 786.05 542.91 776.88 594.83 760.33 683.12 735.54 794.9 706.9 907.46 676.14 994.47 645.6 1034.35 617.44 1012.72 589.27 936.65 564.81 826.29 542.44 711.61 517.97 617.81 491.52 564.04 459.26 555.76 419.61 591.68 368.49 655.59 303.36 728.91 229.27 803.72 143.06 859.16 50.54 888.34 -35.4 894.4 -109.93 874.02 -159.81 834.58 -176.82 780.01 -155.35 718.19 -95.33 656.65 -12.99 591.54 81.3 532.8 165.28 483.44 212.84 434.06 214.09 394.65 163.95 366.48 71.22 338.31 -35.59 322.72 -129.53 318.97 -194.81 315.22 -213.15 322.71 -184.52 339.01 -116.89 351.74 -23.36 367.17 78.08 378.34 177.1 374.37 259.16 354.33 318.74 311.36 356.02 245.26 372.29 156.43 374.32 52.29 362.54 -50.34 347.55 -139.52 335.74 -196.09 320.72 -208.46 314.36 -170.74 318.93 -87.82 323.49 15.97 339.5 120.63 367.67 196.72 395.83 218.36 434.82 184.21 483.38 108.08 531.93 6.38 589.53 -89.37 653.36 -157.02 713.99 -188.29 775.37 -173.78 830.55 -120.91 871.94 -38.93 896.1 57.26 895.74 152.93 873.07 243.81 824.41 318.39 754.72 374.81 682.6 416.36 614.33 443.58 567.35 462.09 559.36 472.55 593.74 482.11 669.89 495.36 774.69 506.82 887.22 525.72 979.95 553.88Q979.95 553.88 979.95 553.88" opacity="0.22"></path><path d="M945.95 622.63C993.93 648.45 993.86 675.54 949.19 702.01 870.51 726.55 772.65 746.81 673.73 758.95 585.96 764.55 521.6 757.17 484.72 734.27 476 703.66 489.95 659.26 518.01 605.73 559.33 557.92 600.53 516.32 634.99 492.22 667.97 497.36 688.73 533.58 696.96 602.13 700.88 694.78 694.35 799.97 679.61 898.57 663.26 970.76 641.58 1000.87 615.76 978.72 589.94 910.65 561.2 811.84 528.86 705.48 494.91 611.3 454.47 546.18 405.8 517.6 352.83 527.42 289.55 566.86 216.78 623.09 142.52 691.01 64.26 752.4 -10.9 798.47 -95.08 837.16 -104.92 796.53 -15.48 739.67 64.51 693.81 147.67 648.44 216.39 607.66 251.09 565.76 245.93 530.93 197.95 505.11 114.07 479.28 16.88 463.69 -72.52 456.9 -142.19 448.98 -175.08 447.39 -168.36 448.51 -126.41 443.68 -55.9 435.04 29.96 416.89 123.31 384.81 211.01 336.43 285.44 269.57 346.29 189.66 389.52 97.66 417.75 2.86 436.47 -111.55 443.65 -136.76 452.75 -27.34 459.94 69.04 475.78 162.62 501.6 230.71 527.42 252.87 561.99 228.01 603.5 165.79 643.99 77.16 689.16 -13.33 735.21 -87.07 775.87 -136.7 811.4 -149.77 835.97 -128.03 847.53 -77.05 841.37 -4.83 814.36 76.81 773.77 164.18 716.68 245.65 650.21 316.06 591.23 378.75 543.88 428.65 520.85 467.79 533.06 500.4 580.65 527.11 660.28 551.26 759.65 573.49 862.07 596.81 945.95 622.63Q945.95 622.63 945.95 622.63" opacity="0.22"></path><path d="M911.98 606C957.39 629.47 963.06 647.99 930.93 660.67 868.29 672.01 785.02 675.13 694.84 668.36 607.06 658.14 532.96 636.54 478.34 604.15 444.78 571.05 431.9 532.05 435.07 492.98 453.63 465.8 478.65 450.75 503.99 455.45 533.42 485.32 556.57 540.26 570.91 617.95 584.35 709 588.09 803.96 582.2 887.57 575.57 945.58 560.47 966.98 537 944.73 513.52 884.41 482.8 797.1 445.16 700.35 406.78 609.02 360.34 537.24 306.23 493.01 251.21 479.66 189.4 493.9 123.8 527.95 62.28 579.12 3.56 633.47 -45.75 682.47 -79.69 728.08 -94.64 759.37 -85.52 775.42 -55.34 782.01 -2.28 775.4 68.28 759.2 141.25 737.25 211.17 710.71 264.74 683.14 287.82 654.05 277.39 626.9 231.98 603.43 156.79 579.96 69.48 561.28 -13.89 546.09 -84.81 529.4 -128.18 513.24 -139.76 494.51 -121.8 470.04 -76.07 438 -11.35 395.22 66.75 343 148.11 278.01 224.9 201.64 296.8 121.87 357.01 39.69 404.88 -35.91 443.51 -94.4 472.36 -129.69 494.59 -133.54 511.49 -106.52 526.52 -48.1 542.61 34.17 557.32 121.86 575.8 204.41 599.28 264.73 622.74 286.98 650.09 270.34 679.65 221.38 707.83 146.83 735.49 65.23 759.28 -8.61 782.63 -86.04 760.14 -67.23 705.75 12.15 659.72 81.98 606.2 154.67 552.53 223.95 512.24 292.52 487.55 352.78 486.79 403.67 515.57 451.11 572.29 490.69 652.26 523.62 744.69 555.21 836.76 582.52 911.95 605.99Q911.98 606 911.98 606" opacity="0.96"></path><path d="M877.69 510.25C920.31 531.37 930.73 544.05 909.89 548.4 862.74 552.25 795.28 547.07 717.42 533.14 635.81 518.93 559.8 497.12 495.51 470.17 444.49 447.4 409.61 425.21 389.38 408.87 382.94 406.09 386.01 417.22 394.06 446.35 408.91 494.18 422.87 559.88 432.67 639.35 444.12 723.66 448.78 805.72 445.29 873.96 441.88 918.75 429.93 932.54 408.8 910.62 387.68 857.77 358.38 781.81 321.95 695.62 285.61 609.98 242.51 536.09 194.46 481.47 148.05 449.66 99.3 440.97 51.88 451.58 11.28 480.41 -22.11 518.25 -43.36 558.15 -50.81 601.85 -40.98 638.87 -11.96 666.24 30.32 689.66 87.39 702.05 153.52 704.37 215.89 702.88 271.33 693.88 310.32 679.39 323.02 663.67 308.31 644.74 265.69 623.61 198.91 602.49 121.54 580.17 45.47 556.06 -23.74 530.7 -73.33 501.28 -98.71 466.16 -101.14 427.24 -79.05 380.06 -37.61 324.08 19.25 264.16 85.01 196.81 152.96 125.42 222.77 57.83 287.34 -5.05 344.01 -55.88 396.25 -88.5 440.01 -98.76 476.14 -82.43 508.53 -43.31 535.95 18.54 560 96.03 582.89 174.06 604.59 245.75 625.72 298.61 646.84 320.53 666.38 311.04 683.34 274.41 699.12 214.32 710.14 144.29 714.35 75.46 714.84 11.47 705.87 -35.28 686.18 -61.12 662.07 -68.25 627.83 -54.34 585.71 -23.87 545.45 20.14 504.73 72.66 469.86 127.99 450.42 187.5 447.28 244.1 465.19 294.92 506.06 345.46 567.67 389.07 645.04 425.06 729.26 460.55 810.91 489.12 877.69 510.25Q877.69 510.25 877.69 510.25" opacity="0.96"></path><path d="M843.97 372.34C883.14 391.12 896.82 401.54 885.37 404.29 852.22 407.27 800.56 403.19 737.19 393.49 666.56 385.6 595.71 374.56 530.13 363.26 470.89 358.13 422.27 357.61 384.88 365.41 357.47 384.94 339.54 417 328.53 462.9 324.32 520.4 322.9 588.79 321.47 663.52 322.82 737.08 321.17 804.6 314.72 857.77 308.86 890.56 296.96 897.88 278.18 876.72 259.41 831.04 234.64 766.12 205.09 691.14 176.12 613.53 143.61 541.71 109.72 482.1 78.61 437.68 49.1 410.75 24.37 400.21 6.44 405.76 -2.58 422.42 0.22 445.41 12.99 476 39.35 506.02 79.04 531.93 125.06 558.5 179.08 577.89 235.94 589.13 306.03 600.04 347.88 583.28 299.97 558.25 241.63 539.47 174.31 515.3 106.5 485.97 41.38 456.01 -10.65 419.82 -45.35 377.38 -63.73 333.59 -62.25 283.28 -43.38 227.77 -10.04 172.92 34.67 115.94 85.79 60.74 142.77 13.14 199.93 -25.78 253.9 -50.87 307.69 -59.89 355.96 -49.8 397.77 -19.14 438.01 26.7 472.39 87.83 501.09 158.19 529.14 225.93 552.63 287.04 571.4 332.72 590.19 353.88 603.37 350.36 610.74 324.82 617.46 278.9 617.23 222.06 609.53 162.26 600.27 101.3 582.93 49.75 558.08 11.8 533.04 -14.54 502.85 -24.33 470.48 -19.26 443.96 -2.45 421.5 25.02 407.71 59.09 408.39 99.34 423.74 141.3 455.87 181.73 504.33 223.98 567.06 262.22 639.42 294.65 714.47 327.3 785.6 353.56 843.94 372.33Q843.97 372.34 843.97 372.34" opacity="0.83"></path><path d="M809.94 244.96C863.23 277.83 837.23 289.91 752.61 290.52 634.25 301.14 514.41 320.35 418.06 366.08 343.65 443.54 296.72 556.52 266.08 686.79 245.88 798.72 223.51 862.02 190.65 842.71 157.79 749.89 117.55 616.76 80.8 492.71 54.49 403.04 50.14 362.87 81.48 361.16 134.76 391.95 219.75 426.96 314.01 446.51 374.55 468.34 387.23 464.92 333.94 432.06 223.13 399.2 104.54 340.01 18.68 261.23 -26.18 184.73 -12.73 98.44 41.18 24.58 122.94 -16.77 211.76 -11.46 288.06 54.11 365.24 154.08 423.05 273.89 455.91 366.71 488.77 386.02 493.58 336.04 473.34 248.19 453.99 142.01 416.45 63.89 377.77 29.49 366.91 26.83 388.32 58.91 457.27 105.24 567.22 161.58 699.13 212.1 809.94 244.96Q809.94 244.96 809.94 244.96" opacity="0.85"></path><path d="M775.98 177.06C826.09 205.23 817 228.79 760.58 253.7 671.89 286.84 570.8 335.3 478.48 406.17 393.23 493.01 327.37 599.17 279.77 706.02 238.94 789.16 206.14 830.36 177.98 808.73 149.81 732.66 128.94 622.23 120.96 510.92 119.74 415.07 141.65 350.7 189.98 317.31 245.39 310.17 316.6 315.78 384.65 318.96 420.42 327.99 418.09 321.72 367.98 293.56 275.26 265.39 173.97 217.99 91.77 160.15 23.09 83.38 100.58 42.53 184.17 134.96 244.14 225.62 292.19 324.63 320.36 400.72 348.53 422.36 354.16 392.59 343 330.09 336.46 243.88 323.93 167.6 319.64 117.67 339.54 83.71 387.33 79.21 467.69 94.89 570.52 118.79 683.23 148.89 775.95 177.05Q775.98 177.06 775.98 177.06" opacity="0.42"></path><path d="M741.98 194.62C787.38 218.09 790.93 249.75 758.97 290.72 700.62 336.13 626.09 397.28 550.84 473.18 473.3 552.87 406.2 639.64 354.32 718.21 305.07 774.13 268.1 796.98 244.63 774.73 221.16 714.41 213.4 626.98 221.98 533.7 233.18 443.64 263.65 370.08 310.43 317.7 354.91 281.65 404.54 259.75 445.69 243.95 460.45 233.78 447.38 219.37 401.98 195.9 326.79 172.43 244.1 142.12 171.52 111.61 108.31 86.73 71.9 72 61.87 77.29 68.18 98.89 91.61 147.56 121.91 220.41 157.19 296.47 189.84 374.39 213.31 434.72 236.79 456.98 248.87 443.65 254.26 404.94 264.64 343.57 277.83 281.69 302.28 232.77 343.07 187.63 404.37 163.11 484.78 158.37 574.56 158.08 666.76 171.14 741.95 194.61Q741.98 194.62 741.98 194.62" opacity="0.26"></path><path d="M707.84 290.89C747.08 309.66 758.82 341.84 746.16 385.1 714.99 429.46 668.96 485.77 617.81 549.3 560.8 610.09 507.16 670.72 463.16 720.68 419.02 753.04 385.8 761.84 367.03 740.68 348.25 695.01 345.68 629.88 357.29 557.79 368.74 482.77 393.07 414.03 425.47 357.53 452.02 308.19 478.12 270.14 495.53 241.61 494.43 216.5 475.08 195.25 435.84 176.47 377.47 157.69 313.79 143.17 255.06 135.73 197.98 131.72 156.19 140.47 132.02 165.19 116.12 197.08 114.93 245.91 124.22 307.17 136.86 365.49 154.22 423.01 173 468.68 191.77 489.84 210.2 488.65 230.1 470.06 253.35 433.86 283.84 393.14 324.36 356.97 373.13 318.04 434.84 291.04 505.69 279.23 578.18 268.51 649.47 272.11 707.84 290.89Q707.84 290.89 707.84 290.89" opacity="0.72"></path><path d="M673.98 429.08C724.09 457.25 710.68 529.34 662.39 615.16 593.62 684.43 529.04 728.36 500.87 706.73 472.7 630.65 486.29 520.08 518.14 424.47 529.51 334.38 520.09 271.01 469.98 242.84 377.25 214.67 287.04 227.04 233.58 280.22 190.28 338.91 185.64 426.65 213.81 502.73 241.98 524.36 297.62 503.26 377.84 470.91 468.2 422.01 581.25 400.91 673.98 429.08Q673.98 429.08 673.98 429.08" opacity="0.30"></path><path d="M639.95 556.06C694.81 593.62 636.43 688 598.88 672.72 561.32 562.34 558.81 406.98 503.95 369.42 374.63 331.87 283.58 426.34 321.14 536.72 358.69 552 510.63 518.51 639.95 556.06Q639.95 556.06 639.95 556.06" opacity="0.54"></path></g></svg>