<svg xmlns="http://www.w3.org/2000/svg" version="1.1" xmlns:xlink="http://www.w3.org/1999/xlink" xmlns:svgjs="http://svgjs.dev/svgjs" viewBox="0 0 800 800" opacity="0.29"><defs><linearGradient x1="50%" y1="0%" x2="50%" y2="100%" id="uundulate-grad"><stop stop-color="hsl(37, 99%, 67%)" stop-opacity="1" offset="45%"></stop><stop stop-color="hsl(316, 73%, 52%)" stop-opacity="1" offset="100%"></stop></linearGradient></defs><g stroke-width="1" stroke="url(#uundulate-grad)" fill="none"><path d="M628.1966327370458 368.6585744056499C640.6920053880215 496.2196898750308 587.4924693935303 693.6717072600825 492.16449169198563 706.1521908227309C396.83651399044095 718.6326743853792 183.11771242060655 556.1260109757436 170.6223397696309 428.56489550636275C158.12696711865522 301.003780036982 336.85872526575815 106.33932013235079 432.18670296730284 93.85883656970236C527.5146806688474 81.37835300705399 615.7012600860701 241.09745893626916 628.1966327370458 368.6585744056499C640.6920053880215 496.2196898750308 587.4924693935303 693.6717072600825 492.16449169198563 706.1521908227309 "></path><path d="M616.7868133072247 370.22565636651984C628.6574173256516 491.4087160624315 578.117858130885 678.9881325782306 487.55627931441757 690.8445919627466C396.99470049795013 702.7010513472625 193.96183900660748 548.3197211081086 182.0912349881806 427.1366614121969C170.22063096975376 305.9536017162852 340.0158012095015 121.0223648068856 430.577380025969 109.16590542236958C521.1389588424363 97.3094460378536 604.9162092887979 249.04259667060808 616.7868133072247 370.22565636651984C628.6574173256516 491.4087160624315 578.117858130885 678.9881325782306 487.55627931441757 690.8445919627466 "></path><path d="M605.3769786186147 371.79273832738966C616.6228140044927 486.5977422498323 568.7432316094507 664.3045578963788 482.94805167806044 675.5369931027624C397.15287174667037 686.769428309146 204.80595033381934 540.5134312404739 193.56011494794126 425.7084273180311C182.31427956206318 310.90342339558845 343.17286189445576 135.70540948142036 428.96804182584594 124.47297427503685C514.7632217572361 113.24053906865328 594.1311432327366 256.98773440494693 605.3769786186147 371.79273832738966C616.6228140044927 486.5977422498323 568.7432316094507 664.3045578963788 482.94805167806044 675.5369931027624 "></path><path d="M593.9671439300046 373.35982028825947C604.588210683334 481.78676843723315 559.3686050880164 649.6209832145271 478.3398240417034 660.2293942427782C397.3110429953904 670.8378052710294 215.6500616610312 532.707141372839 205.02899490770187 424.28019322386535C194.4079281543726 315.8532450748917 346.3299225794101 150.38845415595517 427.358703625723 139.78004312770406C508.38748467203595 129.1716320994529 583.3460771766752 264.93287213928585 593.9671439300046 373.35982028825947C604.588210683334 481.78676843723315 559.3686050880164 649.6209832145271 478.3398240417034 660.2293942427782 "></path><path d="M582.5573092413945 374.92688699034034C592.553607362175 476.9757793658449 549.993978566582 634.9373932738863 473.7315964053463 644.921780124005C397.4692142441106 654.9061669741237 226.49417298824306 524.9008362464151 216.49787486746254 422.85194387091053C206.50157674668202 320.80305149540584 349.4869832643643 165.07148357170092 425.7493654256 155.0870967215822C502.0117475868358 145.1027098714635 572.5610111206139 272.87799461483564 582.5573092413945 374.92688699034034C592.553607362175 476.9757793658449 549.993978566582 634.9373932738863 473.7315964053463 644.921780124005 "></path><path d="M571.1474898115735 376.4939536924211C580.5190192998052 472.1647902944567 540.6193673039368 620.2538033332454 469.12338402777823 629.6141660052317C397.6274007516198 638.9745286772179 237.338299574244 517.0945311199912 227.96677008601222 421.4236945179557C218.5952405977805 325.75285791592006 352.6440592081077 179.75451298744667 424.14004248426613 170.39415031546037C495.6360257604247 161.03378764347406 561.7759603233417 280.8231170903855 571.1474898115735 376.4939536924211C580.5190192998052 472.1647902944567 540.6193673039368 620.2538033332454 469.12338402777823 629.6141660052317 "></path><path d="M559.7376551229634 378.0610051357128C568.4844159786462 467.35378596427927 531.2447407825025 605.5701981338154 464.5151563914212 614.3065366276694C397.7855720003399 623.0428751215233 248.18241090145585 509.2882107347782 239.4356500457729 419.9954299062117C230.68888919008992 330.70264907764516 355.8011198930619 194.43752714440336 422.5307042841432 185.70118865054945C489.2602886752245 176.9648501566956 550.9908942672803 288.7682243071462 559.7376551229634 378.0610051357128C568.4844159786462 467.35378596427927 531.2447407825025 605.5701981338154 464.5151563914212 614.3065366276694 "></path><path d="M548.3278051755642 379.6280870965826C556.4497973986984 462.5428121516802 521.8700990022791 590.8866234519637 459.906913496275 598.9989377676852C397.943727990271 607.1112520834066 259.02650696987865 501.48192086714346 250.90451474674444 418.56719581204595C242.78252252361028 335.65247075694845 358.9581653192272 209.12057181893817 420.92135082523123 201.00825750321673C482.88453633123527 192.89594318749522 540.20581295243 296.7133620414851 548.3278051755642 379.6280870965826C556.4497973986984 462.5428121516802 521.8700990022791 590.8866234519637 459.906913496275 598.9989377676852 "></path><path d="M536.9179857457432 381.19513853987434C544.4152093363285 457.7318078215028 512.4954877396337 576.2030182525339 455.29870111870696 583.6913083901229C398.10191449778023 591.179598527712 269.8706335558796 493.6756004819305 262.3734099652942 417.13893120030207C254.87618637470877 340.60226191867355 362.1152412629705 223.80358597589486 419.31202788389726 216.31529583830581C476.50881450482404 208.82700570071677 529.4207621551577 304.6584692582459 536.9179857457432 381.19513853987434C544.4152093363285 457.7318078215028 512.4954877396337 576.2030182525339 455.29870111870696 583.6913083901229 "></path><path d="M525.508151057133 382.7621899831661C532.3806060151696 452.9208034913255 503.1208612181995 561.5194130531039 450.69047348234994 568.3836790125605C398.26008574650035 575.2479449720172 280.71474488309144 485.8692800967175 273.8422899250548 415.71066658855807C266.9698349670182 345.55205308039865 365.2723019479248 238.48660013285155 417.70268968377434 231.6223341733949C470.1330774196239 224.75806821393826 518.6356960990964 312.60357647500666 525.508151057133 382.7621899831661C532.3806060151696 452.9208034913255 503.1208612181995 561.5194130531039 450.69047348234994 568.3836790125605 "></path><path d="M514.098331627312 384.3292719440359C520.3460179527998 448.1098296787263 493.7462499555543 546.8358383712522 446.0822611047819 553.0760801525764C398.41827225400954 559.3163219339006 291.55887146909237 478.06299022908274 285.3111851436045 414.2824324943923C279.06349881811667 350.50187475970193 368.42937789166814 253.1696448073863 416.0933667424405 246.92940302606212C463.75735559321276 240.68916124473793 507.8506453018241 320.5487142093455 514.098331627312 384.3292719440359C520.3460179527998 448.1098296787263 493.7462499555543 546.8358383712522 446.0822611047819 553.0760801525764 "></path><path d="M502.6884816799128 385.89635390490577C508.31139937285184 443.29885586612704 484.37160817533083 532.1522636894003 441.4740182096357 537.7684812925921C398.57642824394065 543.3846988957839 302.40296753751517 470.2567003614479 296.78004984457607 412.8541984002265C291.15713215163703 355.45169643900516 371.58642331783335 267.8526894819211 414.48401328352844 262.23647187872933C457.38160324922353 256.62025427553755 497.06556398697376 328.4938519436844 502.6884816799128 385.89635390490577C508.31139937285184 443.29885586612704 484.37160817533083 532.1522636894003 441.4740182096357 537.7684812925921 "></path><path d="M491.27866225009177 387.4634053481975C496.276811310482 438.4878515359498 474.9969969126855 517.4686584899705 436.8658058320677 522.4608519150298C398.73461475144984 527.4530453400891 313.24709412351604 462.4503799762349 308.2489450631258 411.4259337884826C303.2507960027355 360.40148760073026 374.7434992615767 282.5357036388778 412.8746903421945 277.5435102138185C451.0058814228124 272.5513167887591 486.2805131897014 336.43895916044517 491.27866225009177 387.4634053481975C496.276811310482 438.4878515359498 474.9969969126855 517.4686584899705 436.8658058320677 522.4608519150298 "></path><path d="M479.8688275614817 389.0304873090673C484.2422079893231 433.6768777233506 465.62237039125125 502.78508380811866 432.2575781957106 507.15325305504564C398.89278600016996 511.5214223019725 324.0912054507279 454.64409010860004 319.7178250228864 409.9976996943168C315.34444459504493 365.35130928003355 377.90055994653096 297.2187483134126 411.2653521420716 292.8505790664857C444.63014433761225 288.4824098195587 475.49544713364014 344.3840968947841 479.8688275614817 389.0304873090673C484.2422079893231 433.6768777233506 465.62237039125125 502.78508380811866 432.2575781957106 507.15325305504564 "></path><path d="M468.4589928728716 390.59756926993714C472.20760466816427 428.8659039107514 456.2477438698169 488.10150912626693 427.6493505593535 491.84565419506146C399.0509572488901 495.589799263856 334.93531677793976 446.83780024096524 331.1867049826471 408.56946560015103C327.4380931873544 370.3011309593368 381.05762063148524 311.90179298794743 409.65601394194863 308.1576479191529C438.254407252412 304.4135028503584 464.71038107757886 352.32923462912294 468.4589928728716 390.59756926993714C472.20760466816427 428.8659039107514 456.2477438698169 488.10150912626693 427.6493505593535 491.84565419506146 "></path><path d="M457.04915818426144 392.16463597201795C460.17300134700537 424.05491483936316 446.8731173483826 473.4179191856261 423.0411229229964 476.5380400762882C399.20912849761027 479.6581609669503 345.7794281051516 439.03149511454137 342.6555849424077 407.14121624719616C339.53174177966383 375.25093737985094 384.2146813164395 326.5848224036932 408.0466757418257 323.46470151303106C431.87867016721185 320.34458062236894 453.9253150215175 360.27435710467273 457.04915818426144 392.16463597201795C460.17300134700537 424.05491483936316 446.8731173483826 473.4179191856261 423.0411229229964 476.5380400762882 "></path><path d="M445.63932349565135 393.73170267409876C448.13839802584647 419.24392576797493 437.4984908269482 458.73432924498525 418.43289528663934 461.2304259575149C399.3672997463304 463.7265226700446 356.6235394323635 431.22518998811745 354.12446490216837 405.7129668942413C351.62539037197325 380.20074380036516 387.37174200139384 341.26785181943893 406.43733754170273 338.7717551069092C425.5029330820117 336.27565839437955 443.1402489654562 368.2194795802226 445.63932349565135 393.73170267409876C448.13839802584647 419.24392576797493 437.4984908269482 458.73432924498525 418.43289528663934 461.2304259575149 "></path><path d="M434.2295040658303 395.29878463496857C436.1038099634767 414.4329519553757 428.12387956430297 444.05075456313347 413.82468290907127 445.9228270975307C399.5254862538396 447.794899631928 367.4676660183644 423.4189001204826 365.59336012071805 404.2847328000755C363.71905422307174 385.1505654796684 390.5288179451372 355.9508964939737 404.8280146003689 354.0788239595764C419.12721125560057 352.20675142517916 432.35519816818396 376.1646173145615 434.2295040658303 395.29878463496857C436.1038099634767 414.4329519553757 428.12387956430297 444.05075456313347 413.82468290907127 445.9228270975307 "></path><path d="M422.8196693772202 396.8658513370494C424.0692066423178 409.62196288398746 418.74925304286865 429.3671646224926 409.2164552727142 430.6152129787575C399.68365750255975 431.8632613350223 378.3117773455763 415.6125949940587 377.0622400804787 402.85648344712064C375.81270281538116 390.10037190018255 393.68587863009145 370.63392590971944 403.2186764002459 369.38587755345463C412.75147417040034 368.1378291971898 421.5701321121226 384.1097397901113 422.8196693772202 396.8658513370494C424.0692066423178 409.62196288398746 418.74925304286865 429.3671646224926 409.2164552727142 430.6152129787575 "></path><path d="M411.4098346886101 398.4329332979192C412.0346033211589 404.81098907138824 409.3746265214343 414.68358994064084 404.60822763635707 415.30761411877324C399.8418287512799 415.9316382969057 389.15588867278814 407.8063051264239 388.53112004023933 401.4282493529549C387.9063514076906 395.05019357948584 396.8429393150457 385.31697058425425 401.609338200123 384.69294640612185C406.37573708520017 384.0689222279894 410.78506605606134 392.05487752445015 411.4098346886101 398.4329332979192C412.0346033211589 404.81098907138824 409.3746265214343 414.68358994064084 404.60822763635707 415.30761411877324 "></path></g></svg>